<svg xmlns="http://www.w3.org/2000/svg" xmlns:xlink="http://www.w3.org/1999/xlink" height="800px" width="800px" id="Layer_1" viewBox="0 0 511.448 511.448" xml:space="preserve" fill="#000000" stroke="#000000"><g id="SVGRepo_bgCarrier" stroke-width="0"></g><g id="SVGRepo_tracerCarrier" stroke-linecap="round" stroke-linejoin="round"></g><g id="SVGRepo_iconCarrier"> <g> <path style="fill:#FFFFFF;" d="M388.833,308.746v176.742c0,5.181-4.209,9.389-9.389,9.389h-88.371 c-5.181,0-9.389-4.209-9.389-9.389V308.746c0-5.181,4.209-9.389,9.389-9.389h35.901v33.57l-12.372-12.361 c-3.237-3.237-8.473-3.237-11.709,0c-3.238,3.237-3.238,8.473,0,11.709l26.511,26.511c0.011,0.011,0.022,0.022,0.033,0.033 c0.176,0.177,0.376,0.353,0.574,0.519c0.088,0.077,0.188,0.144,0.287,0.21c0.121,0.099,0.232,0.188,0.365,0.276 c0.112,0.077,0.221,0.144,0.344,0.21c0.12,0.066,0.232,0.144,0.352,0.199c0.112,0.066,0.232,0.121,0.354,0.177 c0.133,0.066,0.253,0.121,0.376,0.177c0.121,0.044,0.243,0.088,0.365,0.133c0.133,0.044,0.265,0.099,0.398,0.144 c0.12,0.033,0.243,0.055,0.376,0.088c0.133,0.033,0.276,0.077,0.42,0.099c0.133,0.033,0.276,0.055,0.42,0.066 c0.133,0.022,0.254,0.044,0.376,0.055c0.276,0.033,0.541,0.044,0.817,0.044s0.541-0.011,0.817-0.044 c0.12-0.011,0.243-0.033,0.376-0.055c0.144-0.011,0.287-0.033,0.42-0.066c0.144-0.022,0.287-0.066,0.42-0.099 c0.133-0.033,0.254-0.055,0.376-0.088c0.133-0.044,0.265-0.099,0.398-0.144c0.121-0.044,0.243-0.088,0.365-0.133 c0.122-0.055,0.243-0.11,0.376-0.177c0.121-0.055,0.243-0.11,0.353-0.177c0.12-0.055,0.232-0.133,0.352-0.199 c0.121-0.066,0.232-0.133,0.344-0.21c0.133-0.088,0.243-0.177,0.365-0.276c0.099-0.066,0.199-0.133,0.287-0.21 c0.199-0.166,0.398-0.342,0.574-0.519c0.012-0.011,0.023-0.022,0.033-0.033l26.511-26.511c3.238-3.237,3.238-8.473,0-11.709 c-3.237-3.237-8.473-3.237-11.709,0l-12.372,12.361v-33.57h35.901C384.625,299.357,388.833,303.566,388.833,308.746z M361.217,397.118c0-14.316-11.643-25.959-25.959-25.959s-25.959,11.643-25.959,25.959c0,14.316,11.643,25.959,25.959,25.959 S361.217,411.434,361.217,397.118z"></path> <path style="fill:#FFFFFF;" d="M229.765,308.746v176.742c0,5.181-4.209,9.389-9.389,9.389h-88.371 c-5.181,0-9.389-4.209-9.389-9.389V308.746c0-5.181,4.209-9.389,9.389-9.389h35.901v33.57l-12.372-12.361 c-3.237-3.237-8.473-3.237-11.709,0c-3.238,3.237-3.238,8.473,0,11.709l26.511,26.511c0.011,0.011,0.022,0.022,0.033,0.033 c0.176,0.177,0.376,0.353,0.574,0.519c0.088,0.077,0.188,0.144,0.287,0.21c0.122,0.099,0.232,0.188,0.365,0.276 c0.112,0.077,0.221,0.144,0.344,0.21c0.12,0.066,0.232,0.144,0.352,0.199c0.112,0.066,0.232,0.121,0.354,0.177 c0.133,0.066,0.254,0.121,0.376,0.177c0.122,0.044,0.243,0.088,0.365,0.133c0.133,0.044,0.265,0.099,0.398,0.144 c0.12,0.033,0.243,0.055,0.376,0.088s0.276,0.077,0.42,0.099c0.133,0.033,0.276,0.055,0.42,0.066 c0.133,0.022,0.254,0.044,0.376,0.055c0.276,0.033,0.541,0.044,0.817,0.044c0.276,0,0.541-0.011,0.817-0.044 c0.12-0.011,0.243-0.033,0.376-0.055c0.144-0.011,0.287-0.033,0.42-0.066c0.144-0.022,0.287-0.066,0.42-0.099 c0.133-0.033,0.254-0.055,0.376-0.088c0.133-0.044,0.265-0.099,0.398-0.144c0.122-0.044,0.243-0.088,0.365-0.133 c0.122-0.055,0.243-0.11,0.376-0.177c0.122-0.055,0.243-0.11,0.353-0.177c0.12-0.055,0.232-0.133,0.352-0.199 c0.122-0.066,0.232-0.133,0.344-0.21c0.133-0.088,0.243-0.177,0.365-0.276c0.099-0.066,0.199-0.133,0.287-0.21 c0.199-0.166,0.398-0.342,0.574-0.519c0.012-0.011,0.022-0.022,0.033-0.033l26.511-26.511c3.238-3.237,3.238-8.473,0-11.709 c-3.237-3.237-8.473-3.237-11.709,0l-12.372,12.361v-33.57h35.901C225.557,299.357,229.765,303.566,229.765,308.746z M202.149,397.118c0-14.316-11.643-25.959-25.959-25.959c-14.316,0-25.959,11.643-25.959,25.959 c0,14.316,11.643,25.959,25.959,25.959C190.507,423.077,202.149,411.434,202.149,397.118z"></path> <path style="fill:#FFFFFF;" d="M229.765,25.959v80.086h-28.975c-3.469-10.262-13.178-17.674-24.6-17.674 c-14.316,0-25.959,11.643-25.959,25.959c0,11.422,7.412,21.132,17.674,24.6v73.16h-35.901c-5.181,0-9.389-4.209-9.389-9.389V25.959 c0-5.181,4.209-9.389,9.389-9.389h88.371C225.557,16.57,229.765,20.778,229.765,25.959z"></path> <path style="fill:#FFFFFF;" d="M388.833,25.959v176.742c0,5.181-4.209,9.389-9.389,9.389h-35.901v-73.16 c10.262-3.469,17.674-13.178,17.674-24.6c0-14.316-11.643-25.959-25.959-25.959s-25.959,11.643-25.959,25.959 c0,11.422,7.412,21.132,17.674,24.6v73.16h-35.901c-5.181,0-9.389-4.209-9.389-9.389V135.44l15.244-15.255 c3.238-3.237,3.238-8.473,0-11.709L281.683,93.22V25.959c0-5.181,4.209-9.389,9.389-9.389h88.371 C384.625,16.57,388.833,20.778,388.833,25.959z"></path> </g> <path style="fill:#FFFFFF;" d="M335.258,104.941c5.181,0,9.389,4.209,9.389,9.389s-4.209,9.389-9.389,9.389 s-9.389-4.209-9.389-9.389S330.078,104.941,335.258,104.941z"></path> <g> <path style="fill:#FFFFFF;" d="M405.403,308.746v176.742c0,14.316-11.643,25.959-25.959,25.959h-88.371 c-14.316,0-25.959-11.643-25.959-25.959V308.746c0-14.316,11.643-25.959,25.959-25.959h35.901V228.66h-35.901 c-14.316,0-25.959-11.643-25.959-25.959v-53.597c-0.188,0.011-0.365,0.022-0.552,0.022c-2.121,0-4.242-0.806-5.855-2.43 c-3.238-3.237-3.238-8.473,0-11.709l12.36-12.372h-24.733v80.086c0,14.316-11.643,25.959-25.959,25.959h-35.901v54.127h35.901 c14.316,0,25.959,11.643,25.959,25.959v176.742c0,14.316-11.643,25.959-25.959,25.959h-88.371 c-14.316,0-25.959-11.643-25.959-25.959V308.746c0-14.316,11.643-25.959,25.959-25.959h35.901V228.66h-35.901 c-14.316,0-25.959-11.643-25.959-25.959V25.959C106.045,11.643,117.688,0,132.004,0h88.371c14.316,0,25.959,11.643,25.959,25.959 v80.086h24.733l-12.36-12.372c-3.238-3.237-3.238-8.473,0-11.709c1.756-1.767,4.109-2.552,6.407-2.408V25.959 C265.114,11.643,276.757,0,291.073,0h88.371c14.316,0,25.959,11.643,25.959,25.959v176.742c0,14.316-11.643,25.959-25.959,25.959 h-35.901v54.127h35.901C393.76,282.787,405.403,294.43,405.403,308.746z M388.833,485.489V308.746c0-5.181-4.209-9.389-9.389-9.389 h-35.901v33.57l12.372-12.361c3.237-3.237,8.473-3.237,11.709,0c3.238,3.237,3.238,8.473,0,11.709l-26.511,26.511 c-0.011,0.011-0.022,0.022-0.033,0.033c-0.176,0.177-0.376,0.353-0.574,0.519c-0.088,0.077-0.188,0.144-0.287,0.21 c-0.121,0.099-0.232,0.188-0.365,0.276c-0.112,0.077-0.221,0.144-0.344,0.21c-0.12,0.066-0.232,0.144-0.352,0.199 c-0.112,0.066-0.232,0.121-0.353,0.177c-0.133,0.066-0.253,0.121-0.376,0.177c-0.121,0.044-0.243,0.088-0.365,0.133 c-0.133,0.044-0.265,0.099-0.398,0.144c-0.12,0.033-0.243,0.055-0.376,0.088c-0.133,0.033-0.276,0.077-0.42,0.099 c-0.133,0.033-0.276,0.055-0.42,0.066c-0.133,0.022-0.254,0.044-0.376,0.055c-0.276,0.033-0.541,0.044-0.817,0.044 s-0.541-0.011-0.817-0.044c-0.12-0.011-0.243-0.033-0.376-0.055c-0.144-0.011-0.287-0.033-0.42-0.066 c-0.144-0.022-0.287-0.066-0.42-0.099c-0.133-0.033-0.254-0.055-0.376-0.088c-0.133-0.044-0.265-0.099-0.398-0.144 c-0.121-0.044-0.243-0.088-0.365-0.133c-0.121-0.055-0.243-0.11-0.376-0.177c-0.121-0.055-0.243-0.11-0.353-0.177 c-0.12-0.055-0.232-0.133-0.352-0.199c-0.121-0.066-0.232-0.133-0.344-0.21c-0.133-0.088-0.243-0.177-0.365-0.276 c-0.099-0.066-0.199-0.133-0.287-0.21c-0.199-0.166-0.398-0.342-0.574-0.519c-0.012-0.011-0.023-0.022-0.033-0.033l-26.511-26.511 c-3.238-3.237-3.238-8.473,0-11.709c3.237-3.237,8.473-3.237,11.709,0l12.372,12.361v-33.57h-35.901 c-5.181,0-9.389,4.209-9.389,9.389v176.742c0,5.181,4.209,9.389,9.389,9.389h88.371 C384.625,494.878,388.833,490.669,388.833,485.489z M388.833,202.701V25.959c0-5.181-4.209-9.389-9.389-9.389h-88.371 c-5.181,0-9.389,4.209-9.389,9.389V93.22l15.244,15.255c3.238,3.237,3.238,8.473,0,11.709l-15.244,15.255v67.261 c0,5.181,4.209,9.389,9.389,9.389h35.901v-73.16c-10.262-3.469-17.674-13.178-17.674-24.6c0-14.316,11.643-25.959,25.959-25.959 s25.959,11.643,25.959,25.959c0,11.422-7.412,21.132-17.674,24.6v73.16h35.901C384.625,212.091,388.833,207.882,388.833,202.701z M344.648,114.33c0-5.181-4.209-9.389-9.389-9.389s-9.389,4.209-9.389,9.389s4.209,9.389,9.389,9.389 S344.648,119.511,344.648,114.33z M229.765,485.489V308.746c0-5.181-4.209-9.389-9.389-9.389h-35.901v33.57l12.372-12.361 c3.237-3.237,8.473-3.237,11.709,0c3.238,3.237,3.238,8.473,0,11.709l-26.511,26.511c-0.011,0.011-0.022,0.022-0.033,0.033 c-0.176,0.177-0.376,0.353-0.574,0.519c-0.088,0.077-0.188,0.144-0.287,0.21c-0.122,0.099-0.232,0.188-0.365,0.276 c-0.112,0.077-0.221,0.144-0.344,0.21c-0.12,0.066-0.232,0.144-0.352,0.199c-0.112,0.066-0.232,0.121-0.354,0.177 c-0.133,0.066-0.254,0.121-0.376,0.177c-0.122,0.044-0.243,0.088-0.365,0.133c-0.133,0.044-0.265,0.099-0.398,0.144 c-0.12,0.033-0.243,0.055-0.376,0.088c-0.133,0.033-0.276,0.077-0.42,0.099c-0.133,0.033-0.276,0.055-0.42,0.066 c-0.133,0.022-0.254,0.044-0.376,0.055c-0.276,0.033-0.541,0.044-0.817,0.044c-0.276,0-0.541-0.011-0.817-0.044 c-0.12-0.011-0.243-0.033-0.376-0.055c-0.144-0.011-0.287-0.033-0.42-0.066c-0.144-0.022-0.287-0.066-0.42-0.099 c-0.133-0.033-0.254-0.055-0.376-0.088c-0.133-0.044-0.265-0.099-0.398-0.144c-0.122-0.044-0.243-0.088-0.365-0.133 c-0.122-0.055-0.243-0.11-0.376-0.177c-0.122-0.055-0.243-0.11-0.354-0.177c-0.12-0.055-0.232-0.133-0.352-0.199 c-0.122-0.066-0.232-0.133-0.344-0.21c-0.133-0.088-0.243-0.177-0.365-0.276c-0.099-0.066-0.199-0.133-0.287-0.21 c-0.199-0.166-0.398-0.342-0.574-0.519c-0.012-0.011-0.022-0.022-0.033-0.033l-26.511-26.511c-3.238-3.237-3.238-8.473,0-11.709 c3.237-3.237,8.473-3.237,11.709,0l12.372,12.361v-33.57h-35.901c-5.181,0-9.389,4.209-9.389,9.389v176.742 c0,5.181,4.209,9.389,9.389,9.389h88.371C225.557,494.878,229.765,490.669,229.765,485.489z M229.765,202.701v-80.086h-28.975 c-2.596,7.655-8.66,13.72-16.316,16.316v73.16h35.901C225.557,212.091,229.765,207.882,229.765,202.701z M229.765,106.045V25.959 c0-5.181-4.209-9.389-9.389-9.389h-88.371c-5.181,0-9.389,4.209-9.389,9.389v176.742c0,5.181,4.209,9.389,9.389,9.389h35.901 v-73.16c-10.262-3.469-17.674-13.178-17.674-24.6c0-14.316,11.643-25.959,25.959-25.959c11.422,0,21.132,7.412,24.6,17.674H229.765 z M185.58,114.33c0-5.181-4.209-9.389-9.389-9.389s-9.389,4.209-9.389,9.389s4.209,9.389,9.389,9.389S185.58,119.511,185.58,114.33 z"></path> <path style="fill:#FFFFFF;" d="M335.258,371.159c14.316,0,25.959,11.643,25.959,25.959c0,14.316-11.643,25.959-25.959,25.959 s-25.959-11.643-25.959-25.959C309.299,382.801,320.942,371.159,335.258,371.159z M344.648,397.118 c0-5.181-4.209-9.389-9.389-9.389s-9.389,4.209-9.389,9.389c0,5.181,4.209,9.389,9.389,9.389S344.648,402.298,344.648,397.118z"></path> </g> <path style="fill:#FFFFFF;" d="M335.258,387.728c5.181,0,9.389,4.209,9.389,9.389c0,5.181-4.209,9.389-9.389,9.389 s-9.389-4.209-9.389-9.389C325.869,391.937,330.078,387.728,335.258,387.728z"></path> <path style="fill:#FFFFFF;" d="M176.19,371.159c14.316,0,25.959,11.643,25.959,25.959c0,14.316-11.643,25.959-25.959,25.959 c-14.316,0-25.959-11.643-25.959-25.959C150.231,382.801,161.874,371.159,176.19,371.159z M185.58,397.118 c0-5.181-4.209-9.389-9.389-9.389s-9.389,4.209-9.389,9.389c0,5.181,4.209,9.389,9.389,9.389S185.58,402.298,185.58,397.118z"></path> <g> <path style="fill:#FFFFFF;" d="M176.19,104.941c5.181,0,9.389,4.209,9.389,9.389s-4.209,9.389-9.389,9.389 s-9.389-4.209-9.389-9.389S171.01,104.941,176.19,104.941z"></path> <path style="fill:#FFFFFF;" d="M176.19,387.728c5.181,0,9.389,4.209,9.389,9.389c0,5.181-4.209,9.389-9.389,9.389 s-9.389-4.209-9.389-9.389C166.801,391.937,171.01,387.728,176.19,387.728z"></path> </g> </g></svg>